<?xml version="1.0" encoding="UTF-8" standalone="no"?>
<!-- Created with Inkscape (http://www.inkscape.org/) -->

<svg
   xmlns:dc="http://purl.org/dc/elements/1.1/"
   xmlns:cc="http://creativecommons.org/ns#"
   xmlns:rdf="http://www.w3.org/1999/02/22-rdf-syntax-ns#"
   xmlns:svg="http://www.w3.org/2000/svg"
   xmlns="http://www.w3.org/2000/svg"
   xmlns:sodipodi="http://sodipodi.sourceforge.net/DTD/sodipodi-0.dtd"
   xmlns:inkscape="http://www.inkscape.org/namespaces/inkscape"
   version="1.1"
   width="250"
   height="250"
   id="svg2"
   inkscape:version="0.47 r22583"
   sodipodi:docname="icon.svg">
  <metadata
     id="metadata2882">
    <rdf:RDF>
      <cc:Work
         rdf:about="">
        <dc:format>image/svg+xml</dc:format>
        <dc:type
           rdf:resource="http://purl.org/dc/dcmitype/StillImage" />
      </cc:Work>
    </rdf:RDF>
  </metadata>
  <sodipodi:namedview
     pagecolor="#ffffff"
     bordercolor="#666666"
     borderopacity="1"
     objecttolerance="10"
     gridtolerance="10"
     guidetolerance="10"
     inkscape:pageopacity="0"
     inkscape:pageshadow="2"
     inkscape:window-width="1358"
     inkscape:window-height="715"
     id="namedview2880"
     showgrid="false"
     showguides="true"
     inkscape:guide-bbox="true"
     inkscape:zoom="0.944"
     inkscape:cx="-8.4745763"
     inkscape:cy="84.545279"
     inkscape:window-x="0"
     inkscape:window-y="0"
     inkscape:window-maximized="0"
     inkscape:current-layer="svg2" />
  <defs
     id="defs4">
    <inkscape:perspective
       sodipodi:type="inkscape:persp3d"
       inkscape:vp_x="0 : 125 : 1"
       inkscape:vp_y="0 : 1000 : 0"
       inkscape:vp_z="250 : 125 : 1"
       inkscape:persp3d-origin="125 : 83.333333 : 1"
       id="perspective2884" />
  </defs>
  <rect
     style="fill:#336699;fill-opacity:1;stroke:#336699;stroke-width:1.04458225;stroke-linejoin:round;stroke-opacity:1"
     id="rect3606"
     y="0"
     x="-250"
     ry="25"
     height="250"
     width="250"
     transform="scale(-1,1)" />
  <path
     d="m 134.877,43.5785 0.832,-6.924 -0.727,-5.877 -5.804,-13.175 -8.356,0 -5.804,13.175 -0.727,5.877 0.832,6.924 -14.522,3.087 -2.055002,-6.664 -3.055,-5.073 -10.661,-9.675 -7.633,3.398 0.057,14.397 1.726,5.664 3.576,5.987 -12.011,8.726 -4.588,-5.251 -4.854,-3.392 -13.675,-4.503 -5.591,6.21 5.908,13.129 3.881,4.472 5.702,4.015 -7.423,12.857 -6.328,-2.931 -5.814,-1.124 -14.324,1.448 -2.582,7.947 10.737,9.591 5.365,2.507 6.841,1.349 -1.551,14.765 -6.973,-0.104 -5.769,1.337 -12.496,7.149 0.873,8.31 13.71,4.395 5.921,0.109 6.798,-1.552 4.588,14.12 -6.412,2.741 -4.726,3.568 -8.508,11.614 4.178,7.236 14.312001,-1.561 5.453,-2.309 5.58,-4.182 9.934,11.033 -4.743,5.112 -2.866,5.182 -3.049,14.07 6.759999,4.911 12.44,-7.247 4.042,-4.327 3.397,-6.09 13.562,6.038 -2.252999,6.599 -0.511,5.9 2.938,14.094 8.173001,1.737 8.416,-11.68 1.933,-5.598 0.626,-6.945 14.846,0 0.626,6.945 1.933,5.598 8.416,11.68 8.173,-1.737 2.938,-14.094 -0.511,-5.9 -2.253,-6.599 13.562,-6.038 3.397,6.09 4.042,4.327 12.44,7.247 6.76,-4.911 -3.049,-14.07 -2.866,-5.182 -4.743,-5.112 9.934,-11.033 5.58,4.182 5.453,2.309 14.312,1.561 4.178,-7.236 -8.508,-11.614 -4.726,-3.568 -6.412,-2.741 4.588,-14.12 6.798,1.552 5.921,-0.109 13.71,-4.395 0.873,-8.31 -12.496,-7.149 -5.769,-1.337 -6.973,0.104 -1.551,-14.765 6.841,-1.349 5.365,-2.507 10.737,-9.591 -2.582,-7.947 -14.324,-1.448 -5.814,1.124 -6.328,2.931 -7.423,-12.857 5.702,-4.015 3.881,-4.472 5.908,-13.129 -5.591,-6.21 -13.675,4.503 -4.854,3.392 -4.588,5.251 -12.011,-8.726 3.576,-5.987 1.726,-5.664 0.057,-14.397 -7.633,-3.398 -10.661,9.675 -3.055,5.073 -2.055,6.664 z"
     id="path2824"
     style="fill:#ffffff;fill-opacity:1;stroke:none" />
  <rect
     style="fill:#336699;fill-opacity:1;stroke:#336699;stroke-linejoin:round;stroke-opacity:1"
     id="rect3604"
     y="87.5"
     x="-187.5"
     ry="10.5"
     height="75"
     width="125"
     transform="scale(-1,1)" />
  <path
     style="fill:#ffffff;fill-opacity:1;stroke:#ffffff;stroke-width:1.73385489;stroke-opacity:1"
     id="path3608"
     d="m 100.86693,125 a 24.133075,24.133074 0 0 0 48.26615,0 24.133075,24.133074 0 1 0 -48.26615,0 z" />
</svg>
